<svg width="189" height="174" viewBox="0 0 189 174" fill="none" xmlns="http://www.w3.org/2000/svg">
<path d="M49.2151 138.181C36.6079 138.181 25.3939 130.109 21.3214 118.091L21.046 117.185C20.0855 114.003 19.6831 111.327 19.6831 108.649V54.9548L0.578132 118.728C-1.87893 128.109 3.72034 137.833 13.1148 140.424L134.89 173.037C136.371 173.422 137.896 173.618 139.426 173.619C147.269 173.619 154.436 168.414 156.445 160.742L163.539 138.181H49.2151Z" fill="#ECEFF1"/>
<path d="M189.001 18.083V108.649C189.001 118.414 181.047 126.368 171.281 126.368H49.2153C48.4279 126.368 47.6409 126.289 46.9314 126.209C38.6628 125.187 32.206 118.414 31.5755 110.066C31.4961 109.593 31.4961 109.12 31.4961 108.649V18.083C31.4961 8.31785 39.4502 0.36377 49.2153 0.36377H171.281C181.047 0.36377 189.001 8.31785 189.001 18.083Z" fill="#ECEFF1"/>
<path d="M86.6219 39.7403C86.6219 48.4386 79.5708 55.4912 70.8725 55.4912C62.1731 55.4912 55.1216 48.4386 55.1216 39.7403C55.1216 31.042 62.1731 23.9894 70.8725 23.9894C79.5708 23.9894 86.6219 31.0424 86.6219 39.7403Z" fill="#FFC107"/>
<path d="M189 86.5186V108.649C189 118.414 181.046 126.368 171.281 126.368H49.2151C48.4277 126.368 47.6407 126.289 46.9312 126.21L128.046 45.0959C133.402 39.7403 142.221 39.7403 147.576 45.0959L189 86.5186Z" fill="#008000"/>
<path d="M142.221 126.368H49.215C48.428 126.368 47.6406 126.289 46.9311 126.209C38.6625 125.187 32.2057 118.414 31.5752 110.066L68.9819 72.6581C74.3375 67.3039 83.1569 67.3039 88.5121 72.6581L142.221 126.368Z" fill="#33B55B"/>
</svg>
