<svg width="21" height="27" viewBox="0 0 21 27" fill="none" xmlns="http://www.w3.org/2000/svg">
<path d="M13.608 3.152V6.44H9.144V20H5.04V6.44H0.576V3.152H13.608ZM17.7077 5.216C16.9877 5.216 16.3957 5.008 15.9317 4.592C15.4837 4.16 15.2597 3.632 15.2597 3.008C15.2597 2.368 15.4837 1.84 15.9317 1.424C16.3957 0.991999 16.9877 0.775999 17.7077 0.775999C18.4117 0.775999 18.9877 0.991999 19.4357 1.424C19.8997 1.84 20.1317 2.368 20.1317 3.008C20.1317 3.632 19.8997 4.16 19.4357 4.592C18.9877 5.008 18.4117 5.216 17.7077 5.216ZM19.7717 21.728C19.7717 23.376 19.3557 24.56 18.5237 25.28C17.6917 26.016 16.5317 26.384 15.0437 26.384H13.4357V22.904H14.4197C14.8677 22.904 15.1877 22.816 15.3797 22.64C15.5717 22.464 15.6677 22.176 15.6677 21.776V6.608H19.7717V21.728Z" fill="white"/>
</svg>
